<svg width="24" height="24" viewBox="0 0 24 24" fill="none" xmlns="http://www.w3.org/2000/svg">
<g id="Icon">
<path id="Union" fill-rule="evenodd" clip-rule="evenodd" d="M6.47766 10.9798C6.47766 13.4404 8.47237 15.4351 10.933 15.4351C13.3935 15.4351 15.3882 13.4404 15.3882 10.9798C15.3882 8.51922 13.3935 6.52452 10.933 6.52452C8.47237 6.52452 6.47766 8.51922 6.47766 10.9798ZM4.25001 10.9798C4.25001 14.6707 7.24207 17.6627 10.933 17.6627C12.4086 17.6627 13.7725 17.1845 14.8782 16.3745L18.2063 19.7027L19.75 18.0961L16.4322 14.7782C17.1786 13.6996 17.6159 12.3908 17.6159 10.9798C17.6159 7.28893 14.6238 4.29688 10.933 4.29688C7.24207 4.29688 4.25001 7.28893 4.25001 10.9798Z" fill="#333333"/>
</g>
</svg>
